<svg width="928" height="301" viewBox="0 0 928 301" fill="none" xmlns="http://www.w3.org/2000/svg">
<path d="M99.6068 16.937C100.121 17.062 100.631 17.197 101.139 17.343C104.061 18.208 105.063 18.93 106.521 21.601C110.73 29.307 114.684 37.157 118.712 44.958L151.059 107.466L115.112 131.759C110.704 124.917 104.681 113.436 100.52 106.113C90.2928 124.854 80.3008 143.722 70.5458 162.713C63.0538 167.639 55.4468 173.007 48.0268 178.089C39.5348 183.891 10.8508 205.347 2.92884 205.689C-2.78616 203.325 1.26284 196.436 3.34884 192.706C12.1358 176.992 20.4608 161.004 28.9448 145.121L72.0138 64.311C79.5328 50.187 87.0318 35.928 94.7198 21.894C96.0998 19.374 97.1708 18.389 99.6068 16.937Z" fill="url(#paint0_linear_1_139)"/>
<path d="M400.942 62.807L431.539 62.93C445.552 98.455 459.535 138.322 474.392 172.966L444.997 173.039C443.359 167.411 441.29 158.48 437.878 153.737C436.792 152.228 435 152.591 432.85 152.462L394.273 152.324C392.324 158.63 389.196 166.604 386.918 172.955L358.367 173.028C372.159 136.851 386.312 98.562 400.942 62.807Z" fill="#163280"/>
<path d="M415.801 90.285C417.813 92.396 428.852 125.599 430.421 130.355L418.6 130.318L401.78 130.32C406.29 116.918 410.965 103.572 415.801 90.285Z" fill="white"/>
<path d="M205.951 111.155C223.435 100.868 250.945 94.774 270.703 99.735C283.998 102.98 295.402 111.492 302.297 123.315C311.985 139.795 311.379 158.194 307.391 176.155C298.903 136.335 267.962 132.832 233.068 140.585C218.725 143.854 204.826 148.835 191.671 155.421C188.022 164.587 183.372 170.513 173.719 173.775C160.077 178.802 143.457 171.383 138.886 157.273C136.59 150.02 137.286 142.15 140.82 135.413C144.208 129.028 149.981 124.24 156.881 122.09C165.442 119.457 172.44 121.161 180.042 125.279C189.146 119.641 196.204 115.529 205.951 111.155Z" fill="#19B9D4"/>
<path d="M205.951 111.155L206.133 112.164C197.388 116.688 190.686 120.545 182.291 125.601C191.426 133.348 190.943 137.166 190.608 147.597C190.407 153.87 193.244 155.51 187.054 161.809C183.626 166.669 174.698 171.951 173.719 173.775C160.077 178.802 143.457 171.383 138.886 157.273C136.59 150.02 137.286 142.15 140.82 135.413C144.208 129.028 149.981 124.24 156.881 122.09C165.442 119.457 172.44 121.161 180.042 125.279C189.146 119.641 196.204 115.529 205.951 111.155Z" fill="#18B1D0"/>
<path d="M123.339 151.167C126.404 154.686 141.492 182.925 144.519 188.471C103.996 209.369 74.7628 232.808 44.0508 266.331L34.7549 260.938C21.2799 252.701 16.0038 245.825 9.59485 231.665C44.3928 202.486 84.6418 175.204 123.339 151.167Z" fill="#163280"/>
<path d="M237.049 39.011C270.673 36.32 296.101 54.022 304.034 87.265C306.148 96.126 306.142 103.939 306.491 112.95C291.292 76.117 261.603 72.965 226.993 81.279C206.858 86.475 184.928 97.42 167.243 108.06C160.855 96.34 154.608 84.544 148.504 72.673C173.187 56.338 207.364 41.808 237.049 39.011Z" fill="#18B1D0"/>
<path d="M631.893 93.0275C643.064 92.2105 657.005 93.8172 665.156 102.21C674.965 112.311 673.383 127.231 673.303 140.16C673.236 151.11 673.054 162.05 672.919 172.987C668.452 173.015 651.839 174.038 649.244 172.142L648.911 167.739C644.993 166.236 624.982 186.22 602.271 166.185C595.923 158.283 594.661 145.369 600.407 137.351C609.847 124.178 631.217 125.951 645.498 125.012C647.395 124.887 647.639 124.33 648.47 122.922C647.55 104.004 617.898 113.658 607.609 117.616C606.063 111.694 604.091 105.818 602.221 99.9855C613.161 95.6315 620.453 94.0735 631.893 93.0275ZM648.009 139.876C643.072 139.884 637.638 139.774 632.753 140.12C615.14 143.572 617.962 159.713 636.887 157.555C648.007 153.081 647.991 150.984 648.009 139.876Z" fill="#163280"/>
<path d="M886.513 92.955C919.213 91.73 929.653 111.813 927.703 141.619L874.303 141.645C878.343 155.669 888.353 157.378 901.573 156.638C908.273 156.263 916.383 150.853 921.993 150.293L922.543 151.976C923.863 157.138 925.153 162.31 926.403 167.491C909.893 175.85 879.153 179.066 864.853 166.543C836.393 141.61 848.023 98.091 886.513 92.955Z" fill="#163280"/>
<path d="M886.623 110.079C894.783 109.409 902.373 113.362 905.613 121.023C905.393 127.344 898.823 125.566 893.543 125.529L874.113 125.564C874.623 123.641 875.233 121.744 875.933 119.879C878.183 114.028 881.343 112.436 886.623 110.079Z" fill="white"/>
<path d="M172.82 193.973C184.784 207.175 203.012 252.734 207.798 271.107C199.412 283.245 186.932 292.309 175.023 300.698L170.896 292.619C156.8 267.766 141.457 241.907 125.377 218.357C140.491 210.11 157.274 202.208 172.82 193.973Z" fill="#C9C9C9"/>
<path d="M254.199 152.791C260.961 152.486 267.086 152.164 273.776 153.738C282.99 155.932 290.961 161.683 295.952 169.735C307.237 188.075 296.13 208.152 285.938 224.115C271.105 247.349 251.202 266.05 227.453 279.918C217.076 286.182 207.329 289.919 195.906 293.67C242.094 262.192 263.19 207.571 254.199 152.791Z" fill="url(#paint1_linear_1_139)"/>
<path d="M732.018 92.915C763.063 91.43 764.713 114.721 763.663 138.778C763.183 149.759 763.523 161.951 763.493 173.04L737.875 172.986C737.533 157.395 746.056 97.571 715.327 119.175C714.56 120.129 712.626 122.592 712.502 123.738C710.83 139.223 711.611 157.534 711.699 172.993L686.028 173.062C686.325 147.115 686.11 120.715 686.136 94.741C694.323 94.742 702.509 94.689 710.695 94.581L711.282 102.912C718.163 96.566 722.808 94.453 732.018 92.915Z" fill="#163280"/>
<path d="M359.248 198.485C386.006 198.249 420.739 194.893 418.558 234.518C418.057 243.626 414.91 249.411 409.023 256.272C394.937 267.727 377.028 265.055 359.262 265.129L359.248 198.485ZM396.918 213.462C389.325 208.402 381.155 208.896 372.501 208.999C372.521 223.894 372.341 239.263 372.594 254.117C382.853 254.221 392.064 255.363 399.917 247.566C404.155 241.354 406.841 233.885 405.46 226.283C404.475 221.024 401.391 216.395 396.918 213.462Z" fill="#19B9D4"/>
<path d="M812.713 93.018C824.973 92.074 833.563 94.194 844.563 99.023C842.543 105.658 840.653 112.33 838.883 119.036C837.233 118.227 835.563 117.467 833.873 116.756C826.653 113.701 817.493 111.965 810.013 115.129C805.393 117.041 801.773 120.764 799.993 125.427C797.793 130.989 797.913 138.09 800.443 143.522C802.533 148.021 806.363 151.471 811.053 153.071C820.753 156.455 830.963 152.464 839.603 148.208L841.813 158.305L844.223 168.874C838.633 171.556 832.663 173.358 826.523 174.215C812.643 176.119 798.373 174.45 786.903 165.624C769.593 152.492 767.603 124.272 781.023 107.744C789.163 97.716 800.303 94.241 812.713 93.018Z" fill="#163280"/>
<path d="M478.949 61.045L504.627 61.094L504.644 172.983L478.968 173.04L478.949 61.045Z" fill="#163280"/>
<path d="M518.917 61.065L544.582 61.146L544.645 172.994L518.993 173.047L518.917 61.065Z" fill="#163280"/>
<path d="M473.606 215.233C482.45 215.98 481.862 218.325 488.774 220.064C489.018 218.941 489.196 218.167 489.536 217.069C492.504 216.253 498.319 216.587 501.631 216.629C501.56 252.401 511.462 298.565 456.666 280.524L456.962 270.13C467.381 273.506 490.824 279.669 488.97 260.204C487.26 259.843 479.488 263.631 476.361 264.009C446.429 267.63 440.945 219.851 473.606 215.233ZM488.677 245.443C492.117 232.85 486.419 224.671 473.249 225.604C459.173 233.945 461.848 255.83 480.433 253.854C484.754 251.694 487.331 250.371 488.677 245.443Z" fill="#19B9D4"/>
<path d="M561.611 94.802L587.206 94.677C587.501 120.609 587.217 147.049 587.185 173.019L561.631 172.979L561.611 94.802Z" fill="#163280"/>
<path d="M588.779 215.912C625.613 211.9 618.751 238.412 618.501 264.998C614.857 265.105 610.564 265.359 607.001 264.963C606.6 263.415 606.555 263.089 605.841 261.608C594.934 262.419 596.739 271.132 579.466 263.241C574.37 259.179 572.866 253.958 573.766 247.598C575.97 232.032 599.172 237.708 605.516 233.193C605.991 231.563 606.244 231.941 605.527 230.481C600.712 220.674 585.358 225.863 578.364 228.908C578.287 225.401 577.956 222.39 577.586 218.902C581.693 217.51 584.524 216.848 588.779 215.912ZM606.73 248.698C607.745 241.593 595.801 243.524 592.812 243.781C590.135 244.856 587.514 245.806 586.421 248.807C585.884 250.262 586.032 251.883 586.823 253.217C589.585 257.945 594.115 257.252 598.627 256.577C601.165 255.123 606.318 251.579 606.73 248.698Z" fill="#19B9D4"/>
<path d="M675.852 215.516C695.132 214.482 699.616 227.912 700.097 244.044C688.405 243.881 676.712 243.885 665.02 244.056C669.265 259.091 679.791 257.798 692.328 254.018C694.897 252.809 694.829 252.355 697.427 252.611C698.778 254.759 698.201 259.333 698.096 262.161C687.417 266.125 677.103 267.997 666.508 263.563C649.815 256.577 647.12 232.353 660.788 221.171C664.281 218.314 666.378 217.409 670.56 215.937C672.321 215.759 674.086 215.619 675.852 215.516ZM687.076 234.138C688.587 226.859 679.296 224.298 673.402 224.806C668.134 227.809 667.705 228.531 665.461 234.054L665.152 234.798L664.973 235.245L681.036 235.341C684.303 235.273 684.744 235.815 687.076 234.138Z" fill="#18B1D0"/>
<path d="M150.728 0.547009C162.205 -2.08399 173.657 5.02701 176.393 16.482C179.128 27.937 172.125 39.458 160.699 42.299C149.122 45.178 137.42 38.061 134.649 26.456C131.877 14.85 139.1 3.21201 150.728 0.547009Z" fill="#C9C9C9"/>
<path d="M210.285 176.239C221.748 173.439 233.299 180.506 236.027 191.989C238.755 203.472 231.617 214.982 220.12 217.638C208.724 220.272 197.341 213.208 194.637 201.826C191.933 190.445 198.923 179.014 210.285 176.239Z" fill="#163280"/>
<path d="M549.493 204.045C551.818 203.806 552.976 203.383 554.842 204.519C556.578 207.512 555.796 212.678 555.722 216.52L569.12 216.71L569.076 226.346L555.66 226.412C555.611 233.151 554.967 245.431 556.12 251.901C557.265 258.331 562.942 254.341 567.361 256.506C569.235 258.991 568.752 261.711 568.733 265.006C566.012 265.512 563.258 265.821 560.493 265.933C537.67 267.013 542.969 242.453 542.877 226.478C537.308 226.535 536.736 227.345 533.831 222.455C533.703 215.853 538.148 216.569 542.88 216.577C543.01 212.66 542.03 208.814 543.477 205.551C545.81 203.783 546.23 204.288 549.493 204.045Z" fill="#18B1D0"/>
<path d="M630.335 195.363L642.919 195.346C643.694 217.474 643.239 242.725 643.198 265.009L630.562 265.106L630.335 195.363Z" fill="#19B9D4"/>
<path d="M514.639 216.581L527.268 216.548L527.267 264.966L514.577 265.064L514.639 216.581Z" fill="#19B9D4"/>
<path d="M429.132 216.491L441.705 216.578C441.827 232.732 441.815 248.887 441.671 265.041L429.047 265.013L429.132 216.491Z" fill="#19B9D4"/>
<path d="M561.444 61.117C570.057 61.129 578.798 60.944 587.421 60.835L587.192 83.925C578.619 84.043 570.044 84.062 561.47 83.982C561.308 76.484 561.432 68.644 561.444 61.117Z" fill="#163280"/>
<path d="M514.444 196.303L527.689 196.294L527.409 208.296L514.527 208.43L514.444 196.303Z" fill="#19B9D4"/>
<path d="M428.917 196.369L441.945 196.35L441.882 208.262L428.922 208.274L428.917 196.369Z" fill="#19B9D4"/>
<defs>
<linearGradient id="paint0_linear_1_139" x1="15.5881" y1="105.685" x2="145.297" y2="126.061" gradientUnits="userSpaceOnUse">
<stop stop-color="#182B7B"/>
<stop offset="1" stop-color="#194894"/>
</linearGradient>
<linearGradient id="paint1_linear_1_139" x1="198.991" y1="222.996" x2="300.095" y2="220.127" gradientUnits="userSpaceOnUse">
<stop stop-color="#0E7CC1"/>
<stop offset="1" stop-color="#1DC9D9"/>
</linearGradient>
</defs>
</svg>
